  0
SECTION
  2
HEADER
  9
$ACADVER
  1
AC1009
  9
$INSBASE
 10
0.0
 20
0.0
 30
0.0
  9
$EXTMIN
 10
0.0
 20
0.0
 30
0.0
  9
$EXTMAX
 10
0.0
 20
0.0
 30
0.0
  0
ENDSEC
  0
SECTION
  2
TABLES
  0
TABLE
  2
VPORT
 70
1
  0
VPORT
  2
*ACTIVE
 70
0
 10
0.0
 20
0.0
 11
1.0
 21
1.0
 12
-5.0
 22
1.0
 13
0.0
 23
0.0
 14
0.1
 24
0.1
 15
0.1
 25
0.1
 16
0.0
 26
0.0
 36
1.0
 17
0.0
 27
0.0
 37
0.0
 40
10.0
 41
1.0
 42
50.0
 43
0.0
 44
0.0
 50
0.0
 51
0.0
 71
0
 72
100
 73
1
 74
1
 75
0
 76
0
 77
0
 78
0
  0
ENDTAB
  0
TABLE
  2
LTYPE
 70
8
  0
LTYPE
  2
CONTINUOUS
 70
0
  3
Solid line
 72
65
 73
0
 40
0.0
  0
LTYPE
  2
DOT
 70
0
  3
. . . . . . .
 72
65
 73
2
 40
0.25
 49
0.0
 49
-0.25
  0
LTYPE
  2
DASHED
 70
0
  3
__ __ __ __ __
 72
65
 73
2
 40
0.8
 49
0.5
 49
-0.3
  0
LTYPE
  2
DASHDOT
 70
0
  3
__ . __ . __ .
 72
65
 73
4
 40
1.0
 49
0.5
 49
-0.25
 49
0.0
 49
-0.25
  0
LTYPE
  2
DIVIDE
 70
0
  3
____ . . ____ . . 
 72
65
 73
6
 40
1.25
 49
0.5
 49
-0.25
 49
0.0
 49
-0.25
 49
0.0
 49
-0.25
  0
LTYPE
  2
BORDER
 70
0
  3
__ __ . __ __ . 
 72
65
 73
6
 40
1.75
 49
0.5
 49
-0.25
 49
0.5
 49
-0.25
 49
0.0
 49
-0.25
  0
LTYPE
  2
HIDDEN
 70
0
  3
__ __ __ __ __
 72
65
 73
2
 40
0.4
 49
0.25
 49
-0.25
  0
LTYPE
  2
CENTER
 70
0
  3
____ _ ____ _ __
 72
65
 73
4
 40
2.0
 49
1.25
 49
-0.25
 49
0.25
 49
-0.25
  0
ENDTAB
  0
TABLE
  2
LAYER
 70
1
  0
LAYER
  2
PYDXF
 70
64
 62
7
  6
continuous
  0
ENDTAB
  0
TABLE
  2
STYLE
 70
1
  0
STYLE
  2
STANDARD
 70
0
 40
0
 41
1.0
 50
0.0
 71
0
 42
1
 3
ARIAL.TTF
 4

  0
ENDTAB
  0
TABLE
  2
VIEW
 70
1
  0
VIEW
  2
BF_TOPVIEW
 70
0
 40
120.0
 10
0.0
 20
0.0
 41
200.0
 11
0.0
 21
0.0
 31
1.0
 12
0.0
 22
0.0
 32
0.0
 42
50.0
 43
0.0
 44
0.0
 50
0.0
 71
0
  0
ENDTAB
  0
ENDSEC
  0
SECTION
  2
BLOCKS
  0
ENDSEC
  0
SECTION
  2
ENTITIES
  0
LINE
  8
0
 10
105.0833511352539
 20
174.8478546142578
 30
27.5
 11
100.0
 21
175.0
 31
27.5
  0
LINE
  8
0
 10
84.82266235351562
 20
173.63401794433594
 30
27.5
 11
79.8481674194336
 21
172.57666015625
 31
27.5
  0
LINE
  8
0
 10
65.42738342285156
 20
167.6513671875
 30
27.5
 11
60.84539031982422
 21
165.44479370117188
 31
27.5
  0
LINE
  8
0
 10
48.00343322753906
 20
157.2410430908203
 30
27.5
 11
44.0752067565918
 21
154.01107788085938
 31
27.5
  0
LINE
  8
0
 10
33.5443229675293
 20
142.9966278076172
 30
27.5
 11
30.493852615356445
 21
138.9274444580078
 31
27.5
  0
LINE
  8
0
 10
22.87451171875
 20
125.73036193847656
 30
27.5
 11
20.875730514526367
 21
121.05398559570312
 31
27.5
  0
LINE
  8
0
 10
16.602386474609375
 20
106.42675018310547
 30
27.5
 11
15.769269943237305
 21
101.40982818603516
 31
27.5
  0
LINE
  8
0
 10
15.085589408874512
 20
86.18649291992188
 30
27.5
 11
15.465639114379883
 21
81.11508178710938
 31
27.5
  0
LINE
  8
0
 10
18.41060447692871
 20
66.1636734008789
 30
27.5
 11
19.98215103149414
 21
61.32695007324219
 31
27.5
  0
LINE
  8
0
 10
26.387840270996094
 20
47.5
 30
27.5
 11
29.0612735748291
 21
43.17375564575195
 31
27.5
  0
LINE
  8
0
 10
38.562435150146484
 20
31.259674072265625
 30
27.5
 11
42.18531799316406
 21
27.69059181213379
 31
27.5
  0
LINE
  8
0
 10
54.240196228027344
 20
18.36871910095215
 30
27.5
 11
58.60594940185547
 21
15.760302543640137
 31
27.5
  0
LINE
  8
0
 10
72.52717590332031
 20
9.562171936035156
 30
27.5
 11
77.38687133789062
 21
8.063157081604004
 31
27.5
  0
LINE
  8
0
 10
92.38066101074219
 20
5.342185020446777
 30
27.5
 11
97.45718383789062
 21
5.038043022155762
 31
27.5
  0
LINE
  8
0
 10
112.66859436035156
 20
5.949379920959473
 30
27.5
 11
117.67249298095703
 21
6.8574538230896
 31
27.5
  0
LINE
  8
0
 10
132.23416137695312
 20
11.34913444519043
 30
27.5
 11
136.88011169433594
 21
13.417646408081055
 31
27.5
  0
LINE
  8
0
 10
149.9617462158203
 20
21.23355484008789
 30
27.5
 11
153.98484802246094
 21
24.344558715820312
 31
27.5
  0
LINE
  8
0
 10
164.84051513671875
 20
35.03903579711914
 30
27.5
 11
168.0113525390625
 21
39.015140533447266
 31
27.5
  0
LINE
  8
0
 10
176.02207946777344
 20
51.9783821105957
 30
27.5
 11
178.1598663330078
 21
56.592872619628906
 31
27.5
  0
LINE
  8
0
 10
182.86886596679688
 20
71.08572387695312
 30
27.5
 11
183.85169982910156
 21
76.07547760009766
 31
27.5
  0
LINE
  8
0
 10
184.99049377441406
 20
91.27155303955078
 30
27.5
 11
184.7623291015625
 21
96.35205841064453
 31
27.5
  0
LINE
  8
0
 10
182.26596069335938
 20
111.38487243652344
 30
27.5
 11
180.8397979736328
 21
116.26644134521484
 31
27.5
  0
LINE
  8
0
 10
174.85061645507812
 20
130.27883911132812
 30
27.5
 11
172.30780029296875
 21
134.68312072753906
 31
27.5
  0
LINE
  8
0
 10
163.1673126220703
 20
146.8760986328125
 30
27.5
 11
159.65281677246094
 21
150.55197143554688
 31
27.5
  0
LINE
  8
0
 10
147.8822021484375
 20
160.2303009033203
 30
27.5
 11
143.596435546875
 21
162.96815490722656
 31
27.5
  0
LINE
  8
0
 10
129.8668670654297
 20
169.57997131347656
 30
27.5
 11
125.05419158935547
 21
171.22369384765625
 31
27.5
  0
LINE
  8
0
 10
105.0833511352539
 20
174.8478546142578
 30
27.5
 11
110.14850616455078
 21
174.39198303222656
 31
27.5
  0
LINE
  8
0
 10
98.90383911132812
 20
60.84080123901367
 30
27.5
 11
98.69638061523438
 21
60.762081146240234
 31
27.5
  0
LINE
  8
0
 10
98.28501892089844
 20
60.25808334350586
 30
27.5
 11
98.24946594238281
 21
60.03905487060547
 31
27.5
  0
LINE
  8
0
 10
98.48026275634766
 20
59.430809020996094
 30
27.5
 11
98.65216827392578
 21
59.29050064086914
 31
27.5
  0
LINE
  8
0
 10
99.29431915283203
 20
59.186256408691406
 30
27.5
 11
99.50178527832031
 21
59.264976501464844
 31
27.5
  0
LINE
  8
0
 10
99.91313934326172
 20
59.76897430419922
 30
27.5
 11
99.82210540771484
 21
59.56661605834961
 31
27.5
  0
LINE
  8
0
 10
130.800537109375
 20
88.85453033447266
 30
27.5
 11
130.83609008789062
 21
89.07355499267578
 31
27.5
  0
LINE
  8
0
 10
130.60528564453125
 20
89.68180084228516
 30
27.5
 11
130.43338012695312
 21
89.82210540771484
 31
27.5
  0
LINE
  8
0
 10
129.79122924804688
 20
89.92635345458984
 30
27.5
 11
129.58377075195312
 21
89.8476333618164
 31
27.5
  0
LINE
  8
0
 10
129.1724090576172
 20
89.34363555908203
 30
27.5
 11
129.13685607910156
 21
89.1246109008789
 31
27.5
  0
LINE
  8
0
 10
129.36764526367188
 20
88.516357421875
 30
27.5
 11
129.53955078125
 21
88.37605285644531
 31
27.5
  0
LINE
  8
0
 10
130.1817169189453
 20
88.27180480957031
 30
27.5
 11
130.38917541503906
 21
88.35052490234375
 31
27.5
  0
LINE
  8
0
 10
130.800537109375
 20
88.85453033447266
 30
27.5
 11
130.70950317382812
 21
88.65216827392578
 31
27.5
  0
LINE
  8
0
 10
70.82759094238281
 20
90.65636444091797
 30
27.5
 11
70.86314392089844
 21
90.8753890991211
 31
27.5
  0
LINE
  8
0
 10
70.6323471069336
 20
91.483642578125
 30
27.5
 11
70.46044158935547
 21
91.62394714355469
 31
27.5
  0
LINE
  8
0
 10
69.81829071044922
 20
91.72819519042969
 30
27.5
 11
69.61082458496094
 21
91.64947509765625
 31
27.5
  0
LINE
  8
0
 10
69.19947052001953
 20
91.14546966552734
 30
27.5
 11
69.16390991210938
 21
90.92644500732422
 31
27.5
  0
LINE
  8
0
 10
69.39470672607422
 20
90.31819915771484
 30
27.5
 11
69.56661224365234
 21
90.17789459228516
 31
27.5
  0
LINE
  8
0
 10
70.20877075195312
 20
90.07364654541016
 30
27.5
 11
70.41622924804688
 21
90.1523666381836
 31
27.5
  0
LINE
  8
0
 10
70.82759094238281
 20
90.65636444091797
 30
27.5
 11
70.73655700683594
 21
90.4540023803711
 31
27.5
  0
LINE
  8
0
 10
101.71498107910156
 20
119.7419204711914
 30
27.5
 11
101.75053405761719
 21
119.96094512939453
 31
27.5
  0
LINE
  8
0
 10
101.51973724365234
 20
120.5691909790039
 30
27.5
 11
101.34783172607422
 21
120.7094955444336
 31
27.5
  0
LINE
  8
0
 10
100.70568084716797
 20
120.8137435913086
 30
27.5
 11
100.49821472167969
 21
120.73502349853516
 31
27.5
  0
LINE
  8
0
 10
100.08686065673828
 20
120.23102569580078
 30
27.5
 11
100.05130004882812
 21
120.01200103759766
 31
27.5
  0
LINE
  8
0
 10
100.28209686279297
 20
119.40374755859375
 30
27.5
 11
100.4540023803711
 21
119.26344299316406
 31
27.5
  0
LINE
  8
0
 10
101.09616088867188
 20
119.15919494628906
 30
27.5
 11
101.30361938476562
 21
119.2379150390625
 31
27.5
  0
LINE
  8
0
 10
101.71498107910156
 20
119.7419204711914
 30
27.5
 11
101.62394714355469
 21
119.53955841064453
 31
27.5
  0
LINE
  8
0
 10
81.40139770507812
 20
160.21774291992188
 30
27.5
 11
81.43531799316406
 21
160.43702697753906
 31
27.5
  0
LINE
  8
0
 10
81.19998931884766
 20
161.0435333251953
 30
27.5
 11
81.02704620361328
 21
161.18255615234375
 31
27.5
  0
LINE
  8
0
 10
80.3841323852539
 20
161.28201293945312
 30
27.5
 11
80.17726135253906
 21
161.20175170898438
 31
27.5
  0
LINE
  8
0
 10
79.7696762084961
 20
160.69468688964844
 30
27.5
 11
79.73574829101562
 21
160.47540283203125
 31
27.5
  0
LINE
  8
0
 10
79.97107696533203
 20
159.868896484375
 30
27.5
 11
80.14402770996094
 21
159.72987365722656
 31
27.5
  0
LINE
  8
0
 10
80.78694152832031
 20
159.6304168701172
 30
27.5
 11
80.99381256103516
 21
159.710693359375
 31
27.5
  0
LINE
  8
0
 10
81.40139770507812
 20
160.21774291992188
 30
27.5
 11
81.31187438964844
 21
160.01470947265625
 31
27.5
  0
LINE
  8
0
 10
123.39069366455078
 20
159.26963806152344
 30
27.5
 11
123.42461395263672
 21
159.48892211914062
 31
27.5
  0
LINE
  8
0
 10
123.18928527832031
 20
160.09542846679688
 30
27.5
 11
123.01634216308594
 21
160.2344512939453
 31
27.5
  0
LINE
  8
0
 10
122.37342834472656
 20
160.3339080810547
 30
27.5
 11
122.16655731201172
 21
160.25363159179688
 31
27.5
  0
LINE
  8
0
 10
121.75897216796875
 20
159.74658203125
 30
27.5
 11
121.72505187988281
 21
159.5272979736328
 31
27.5
  0
LINE
  8
0
 10
53.64881134033203
 20
90.52426147460938
 30
27.5
 11
53.677772521972656
 21
90.7442626953125
 31
27.5
  0
LINE
  8
0
 10
53.42881393432617
 20
91.34529876708984
 30
27.5
 11
53.25277328491211
 21
91.48038482666016
 31
27.5
  0
LINE
  8
0
 10
52.6077766418457
 20
91.56529998779297
 30
27.5
 11
52.402774810791016
 21
91.48038482666016
 31
27.5
  0
LINE
  8
0
 10
52.006736755371094
 20
90.9642562866211
 30
27.5
 11
51.9777717590332
 21
90.7442626953125
 31
27.5
  0
LINE
  8
0
 10
52.22673034667969
 20
90.14321899414062
 30
27.5
 11
52.402774810791016
 21
90.00814056396484
 31
27.5
  0
LINE
  8
0
 10
53.047767639160156
 20
89.92322540283203
 30
27.5
 11
53.25277328491211
 21
90.00814056396484
 31
27.5
  0
LINE
  8
0
 10
53.64881134033203
 20
90.52426147460938
 30
27.5
 11
53.56389617919922
 21
90.31925964355469
 31
27.5
  0
LINE
  8
0
 10
147.91513061523438
 20
87.83196258544922
 30
27.5
 11
147.944091796875
 21
88.05196380615234
 31
27.5
  0
LINE
  8
0
 10
147.69512939453125
 20
88.65299987792969
 30
27.5
 11
147.5190887451172
 21
88.7880859375
 31
27.5
  0
LINE
  8
0
 10
146.87408447265625
 20
88.87300109863281
 30
27.5
 11
146.66908264160156
 21
88.7880859375
 31
27.5
  0
LINE
  8
0
 10
146.27305603027344
 20
88.27195739746094
 30
27.5
 11
146.24407958984375
 21
88.05196380615234
 31
27.5
  0
LINE
  8
0
 10
146.4930419921875
 20
87.45092010498047
 30
27.5
 11
146.66908264160156
 21
87.31584167480469
 31
27.5
  0
LINE
  8
0
 10
147.3140869140625
 20
87.23092651367188
 30
27.5
 11
147.5190887451172
 21
87.31584167480469
 31
27.5
  0
LINE
  8
0
 10
147.91513061523438
 20
87.83196258544922
 30
27.5
 11
147.83021545410156
 21
87.62696075439453
 31
27.5
  0
LINE
  8
0
 10
70.71874237060547
 20
23.29966163635254
 30
27.5
 11
70.77521514892578
 21
23.64752960205078
 31
27.5
  0
LINE
  8
0
 10
70.40866088867188
 20
24.613567352294922
 30
27.5
 11
70.13563537597656
 21
24.836406707763672
 31
27.5
  0
LINE
  8
0
 10
69.11573791503906
 20
25.001976013183594
 30
27.5
 11
68.78623962402344
 21
24.8769474029541
 31
27.5
  0
LINE
  8
0
 10
68.1329116821289
 20
24.076478958129883
 30
27.5
 11
68.0764389038086
 21
23.72861099243164
 31
27.5
  0
LINE
  8
0
 10
68.4429931640625
 20
22.7625732421875
 30
27.5
 11
68.71601867675781
 21
22.53973388671875
 31
27.5
  0
LINE
  8
0
 10
69.73591613769531
 20
22.37416648864746
 30
27.5
 11
70.06541442871094
 21
22.49919319152832
 31
27.5
  0
LINE
  8
0
 10
70.71874237060547
 20
23.29966163635254
 30
27.5
 11
70.57416534423828
 21
22.9782657623291
 31
27.5
  0
LINE
  8
0
 10
99.90286254882812
 20
33.42781448364258
 30
27.5
 11
99.95933532714844
 21
33.77568054199219
 31
27.5
  0
LINE
  8
0
 10
99.59278106689453
 20
34.74171829223633
 30
27.5
 11
99.31975555419922
 21
34.96455764770508
 31
27.5
  0
LINE
  8
0
 10
98.29985809326172
 20
35.130126953125
 30
27.5
 11
97.9703598022461
 21
35.00510025024414
 31
27.5
  0
LINE
  8
0
 10
97.31703186035156
 20
34.204627990722656
 30
27.5
 11
97.26055908203125
 21
33.85676193237305
 31
27.5
  0
LINE
  8
0
 10
97.62711334228516
 20
32.890724182128906
 30
27.5
 11
97.90013885498047
 21
32.667884826660156
 31
27.5
  0
LINE
  8
0
 10
98.92003631591797
 20
32.502315521240234
 30
27.5
 11
99.2495346069336
 21
32.627342224121094
 31
27.5
  0
LINE
  8
0
 10
99.90286254882812
 20
33.42781448364258
 30
27.5
 11
99.75828552246094
 21
33.106414794921875
 31
27.5
  0
LINE
  8
0
 10
128.26177978515625
 20
21.570829391479492
 30
27.5
 11
128.31825256347656
 21
21.918697357177734
 31
27.5
  0
LINE
  8
0
 10
127.95169067382812
 20
22.884735107421875
 30
27.5
 11
127.67866516113281
 21
23.107574462890625
 31
27.5
  0
LINE
  8
0
 10
126.65876770019531
 20
23.273141860961914
 30
27.5
 11
126.32926940917969
 21
23.148115158081055
 31
27.5
  0
LINE
  8
0
 10
125.67594146728516
 20
22.347646713256836
 30
27.5
 11
125.61946868896484
 21
21.999778747558594
 31
27.5
  0
LINE
  8
0
 10
125.98603057861328
 20
21.033740997314453
 30
27.5
 11
126.2590560913086
 21
20.810901641845703
 31
27.5
  0
LINE
  8
0
 10
127.27894592285156
 20
20.64533233642578
 30
27.5
 11
127.60844421386719
 21
20.770360946655273
 31
27.5
  0
LINE
  8
0
 10
128.26177978515625
 20
21.570829391479492
 30
27.5
 11
128.1171875
 21
21.249431610107422
 31
27.5
  0
LINE
  8
0
 10
99.91313934326172
 20
59.76897430419922
 30
27.5
 11
99.94869995117188
 21
59.98800277709961
 31
27.5
  0
LINE
  8
0
 10
99.71790313720703
 20
60.596248626708984
 30
27.5
 11
99.5459976196289
 21
60.73655700683594
 31
27.5
  0
LINE
  8
0
 10
121.96037292480469
 20
158.92079162597656
 30
27.5
 11
122.1333236694336
 21
158.78176879882812
 31
27.5
  0
LINE
  8
0
 10
122.77623748779297
 20
158.68231201171875
 30
27.5
 11
122.98310852050781
 21
158.7625732421875
 31
27.5
  0
LINE
  8
0
 10
123.39069366455078
 20
159.26963806152344
 30
27.5
 11
123.3011703491211
 21
159.0666046142578
 31
27.5
  0
LINE
  8
0
 10
100.0
 20
175.0
 30
27.5
 11
94.9166488647461
 21
174.8478546142578
 31
27.5
  0
LINE
  8
0
 10
79.8481674194336
 20
172.57666015625
 30
27.5
 11
74.94580841064453
 21
171.22369384765625
 31
27.5
  0
LINE
  8
0
 10
60.84539031982422
 20
165.44479370117188
 30
27.5
 11
56.403560638427734
 21
162.96815490722656
 31
27.5
  0
LINE
  8
0
 10
44.0752067565918
 20
154.01107788085938
 30
27.5
 11
40.3471794128418
 21
150.55197143554688
 31
27.5
  0
LINE
  8
0
 10
30.493852615356445
 20
138.9274444580078
 30
27.5
 11
27.69219398498535
 21
134.68312072753906
 31
27.5
  0
LINE
  8
0
 10
20.875730514526367
 20
121.05398559570312
 30
27.5
 11
19.16019630432129
 21
116.26644134521484
 31
27.5
  0
LINE
  8
0
 10
15.769269943237305
 20
101.40982818603516
 30
27.5
 11
15.237677574157715
 21
96.35205841064453
 31
27.5
  0
LINE
  8
0
 10
15.465639114379883
 20
81.11508178710938
 30
27.5
 11
16.148300170898438
 21
76.07547760009766
 31
27.5
  0
LINE
  8
0
 10
19.98215103149414
 20
61.32695007324219
 30
27.5
 11
21.840139389038086
 21
56.592872619628906
 31
27.5
  0
LINE
  8
0
 10
29.0612735748291
 20
43.17375564575195
 30
27.5
 11
31.988649368286133
 21
39.015140533447266
 31
27.5
  0
LINE
  8
0
 10
42.18531799316406
 20
27.69059181213379
 30
27.5
 11
46.015159606933594
 21
24.344558715820312
 31
27.5
  0
LINE
  8
0
 10
58.60594940185547
 20
15.760302543640137
 30
27.5
 11
63.11988067626953
 21
13.417646408081055
 31
27.5
  0
LINE
  8
0
 10
77.38687133789062
 20
8.063157081604004
 30
27.5
 11
82.32750701904297
 21
6.8574538230896
 31
27.5
  0
LINE
  8
0
 10
97.45718383789062
 20
5.038043022155762
 30
27.5
 11
102.54281616210938
 21
5.038043022155762
 31
27.5
  0
LINE
  8
0
 10
117.67249298095703
 20
6.8574538230896
 30
27.5
 11
122.61312866210938
 21
8.063157081604004
 31
27.5
  0
LINE
  8
0
 10
136.88011169433594
 20
13.417646408081055
 30
27.5
 11
141.39404296875
 21
15.760302543640137
 31
27.5
  0
LINE
  8
0
 10
153.98484802246094
 20
24.344558715820312
 30
27.5
 11
157.81468200683594
 21
27.69059181213379
 31
27.5
  0
LINE
  8
0
 10
168.0113525390625
 20
39.015140533447266
 30
27.5
 11
170.938720703125
 21
43.17375564575195
 31
27.5
  0
LINE
  8
0
 10
178.1598663330078
 20
56.592872619628906
 30
27.5
 11
180.01785278320312
 21
61.32695007324219
 31
27.5
  0
LINE
  8
0
 10
183.85169982910156
 20
76.07547760009766
 30
27.5
 11
184.53436279296875
 21
81.11508178710938
 31
27.5
  0
LINE
  8
0
 10
184.7623291015625
 20
96.35205841064453
 30
27.5
 11
184.23072814941406
 21
101.40982818603516
 31
27.5
  0
LINE
  8
0
 10
180.8397979736328
 20
116.26644134521484
 30
27.5
 11
179.124267578125
 21
121.05398559570312
 31
27.5
  0
LINE
  8
0
 10
172.30780029296875
 20
134.68312072753906
 30
27.5
 11
169.5061492919922
 21
138.9274444580078
 31
27.5
  0
LINE
  8
0
 10
159.65281677246094
 20
150.55197143554688
 30
27.5
 11
155.92478942871094
 21
154.01107788085938
 31
27.5
  0
LINE
  8
0
 10
143.596435546875
 20
162.96815490722656
 30
27.5
 11
139.15460205078125
 21
165.44479370117188
 31
27.5
  0
LINE
  8
0
 10
125.05419158935547
 20
171.22369384765625
 30
27.5
 11
120.1518325805664
 21
172.57666015625
 31
27.5
  0
LINE
  8
0
 10
122.1333236694336
 20
158.78176879882812
 30
27.5
 11
122.33635711669922
 21
158.69224548339844
 31
27.5
  0
LINE
  8
0
 10
122.98310852050781
 20
158.7625732421875
 30
27.5
 11
123.16215515136719
 21
158.89364624023438
 31
27.5
  0
LINE
  8
0
 10
98.69638061523438
 20
60.762081146240234
 30
27.5
 11
98.516357421875
 21
60.632347106933594
 31
27.5
  0
LINE
  8
0
 10
98.24946594238281
 20
60.03905487060547
 30
27.5
 11
98.27180480957031
 21
59.81828689575195
 31
27.5
  0
LINE
  8
0
 10
98.65216827392578
 20
59.29050064086914
 30
27.5
 11
98.85453033447266
 21
59.19947052001953
 31
27.5
  0
LINE
  8
0
 10
99.50178527832031
 20
59.264976501464844
 30
27.5
 11
99.68180084228516
 21
59.394710540771484
 31
27.5
  0
LINE
  8
0
 10
130.83609008789062
 20
89.07355499267578
 30
27.5
 11
130.81375122070312
 21
89.29431915283203
 31
27.5
  0
LINE
  8
0
 10
130.43338012695312
 20
89.82210540771484
 30
27.5
 11
130.23101806640625
 21
89.91313934326172
 31
27.5
  0
LINE
  8
0
 10
129.58377075195312
 20
89.8476333618164
 30
27.5
 11
129.40374755859375
 21
89.71790313720703
 31
27.5
  0
LINE
  8
0
 10
129.13685607910156
 20
89.1246109008789
 30
27.5
 11
129.15919494628906
 21
88.90383911132812
 31
27.5
  0
LINE
  8
0
 10
129.53955078125
 20
88.37605285644531
 30
27.5
 11
129.74191284179688
 21
88.28501892089844
 31
27.5
  0
LINE
  8
0
 10
130.38917541503906
 20
88.35052490234375
 30
27.5
 11
130.56919860839844
 21
88.48026275634766
 31
27.5
  0
LINE
  8
0
 10
70.86314392089844
 20
90.8753890991211
 30
27.5
 11
70.84080505371094
 21
91.09616088867188
 31
27.5
  0
LINE
  8
0
 10
70.46044158935547
 20
91.62394714355469
 30
27.5
 11
70.2580795288086
 21
91.71498107910156
 31
27.5
  0
LINE
  8
0
 10
69.61082458496094
 20
91.64947509765625
 30
27.5
 11
69.4308090209961
 21
91.51973724365234
 31
27.5
  0
LINE
  8
0
 10
69.16390991210938
 20
90.92644500732422
 30
27.5
 11
69.1862564086914
 21
90.70568084716797
 31
27.5
  0
LINE
  8
0
 10
69.56661224365234
 20
90.17789459228516
 30
27.5
 11
69.76897430419922
 21
90.08686065673828
 31
27.5
  0
LINE
  8
0
 10
70.41622924804688
 20
90.1523666381836
 30
27.5
 11
70.59625244140625
 21
90.28209686279297
 31
27.5
  0
LINE
  8
0
 10
101.75053405761719
 20
119.96094512939453
 30
27.5
 11
101.72819519042969
 21
120.18170928955078
 31
27.5
  0
LINE
  8
0
 10
101.34783172607422
 20
120.7094955444336
 30
27.5
 11
101.14546966552734
 21
120.80052947998047
 31
27.5
  0
LINE
  8
0
 10
100.49821472167969
 20
120.73502349853516
 30
27.5
 11
100.31819915771484
 21
120.60529327392578
 31
27.5
  0
LINE
  8
0
 10
100.05130004882812
 20
120.01200103759766
 30
27.5
 11
100.07364654541016
 21
119.79122924804688
 31
27.5
  0
LINE
  8
0
 10
100.4540023803711
 20
119.26344299316406
 30
27.5
 11
100.65636444091797
 21
119.17240905761719
 31
27.5
  0
LINE
  8
0
 10
101.30361938476562
 20
119.2379150390625
 30
27.5
 11
101.483642578125
 21
119.3676528930664
 31
27.5
  0
LINE
  8
0
 10
81.43531799316406
 20
160.43702697753906
 30
27.5
 11
81.41133117675781
 21
160.65762329101562
 31
27.5
  0
LINE
  8
0
 10
81.02704620361328
 20
161.18255615234375
 30
27.5
 11
80.82401275634766
 21
161.27207946777344
 31
27.5
  0
LINE
  8
0
 10
80.17726135253906
 20
161.20175170898438
 30
27.5
 11
79.99821472167969
 21
161.0706787109375
 31
27.5
  0
LINE
  8
0
 10
79.73574829101562
 20
160.47540283203125
 30
27.5
 11
79.7597427368164
 21
160.2548065185547
 31
27.5
  0
LINE
  8
0
 10
80.14402770996094
 20
159.72987365722656
 30
27.5
 11
80.34706115722656
 21
159.64035034179688
 31
27.5
  0
LINE
  8
0
 10
80.99381256103516
 20
159.710693359375
 30
27.5
 11
81.1728515625
 21
159.84176635742188
 31
27.5
  0
LINE
  8
0
 10
123.42461395263672
 20
159.48892211914062
 30
27.5
 11
123.40062713623047
 21
159.7095184326172
 31
27.5
  0
LINE
  8
0
 10
123.01634216308594
 20
160.2344512939453
 30
27.5
 11
122.81330871582031
 21
160.323974609375
 31
27.5
  0
LINE
  8
0
 10
122.16655731201172
 20
160.25363159179688
 30
27.5
 11
121.98751068115234
 21
160.12255859375
 31
27.5
  0
LINE
  8
0
 10
121.72505187988281
 20
159.5272979736328
 30
27.5
 11
121.74903869628906
 21
159.30670166015625
 31
27.5
  0
LINE
  8
0
 10
53.677772521972656
 20
90.7442626953125
 30
27.5
 11
53.64881134033203
 21
90.9642562866211
 31
27.5
  0
LINE
  8
0
 10
53.25277328491211
 20
91.48038482666016
 30
27.5
 11
53.047767639160156
 21
91.56529998779297
 31
27.5
  0
LINE
  8
0
 10
52.402774810791016
 20
91.48038482666016
 30
27.5
 11
52.22673034667969
 21
91.34529876708984
 31
27.5
  0
LINE
  8
0
 10
51.9777717590332
 20
90.7442626953125
 30
27.5
 11
52.006736755371094
 21
90.52426147460938
 31
27.5
  0
LINE
  8
0
 10
52.402774810791016
 20
90.00814056396484
 30
27.5
 11
52.6077766418457
 21
89.92322540283203
 31
27.5
  0
LINE
  8
0
 10
53.25277328491211
 20
90.00814056396484
 30
27.5
 11
53.42881393432617
 21
90.14321899414062
 31
27.5
  0
LINE
  8
0
 10
147.944091796875
 20
88.05196380615234
 30
27.5
 11
147.91513061523438
 21
88.27195739746094
 31
27.5
  0
LINE
  8
0
 10
147.5190887451172
 20
88.7880859375
 30
27.5
 11
147.3140869140625
 21
88.87300109863281
 31
27.5
  0
LINE
  8
0
 10
146.66908264160156
 20
88.7880859375
 30
27.5
 11
146.4930419921875
 21
88.65299987792969
 31
27.5
  0
LINE
  8
0
 10
146.24407958984375
 20
88.05196380615234
 30
27.5
 11
146.27305603027344
 21
87.83196258544922
 31
27.5
  0
LINE
  8
0
 10
146.66908264160156
 20
87.31584167480469
 30
27.5
 11
146.87408447265625
 21
87.23092651367188
 31
27.5
  0
LINE
  8
0
 10
147.5190887451172
 20
87.31584167480469
 30
27.5
 11
147.69512939453125
 21
87.45092010498047
 31
27.5
  0
LINE
  8
0
 10
70.77521514892578
 20
23.64752960205078
 30
27.5
 11
70.73973083496094
 21
23.998159408569336
 31
27.5
  0
LINE
  8
0
 10
70.13563537597656
 20
24.836406707763672
 30
27.5
 11
69.8142318725586
 21
24.980989456176758
 31
27.5
  0
LINE
  8
0
 10
68.78623962402344
 20
24.8769474029541
 30
27.5
 11
68.50032806396484
 21
24.670900344848633
 31
27.5
  0
LINE
  8
0
 10
68.0764389038086
 20
23.72861099243164
 30
27.5
 11
68.11192321777344
 21
23.37798309326172
 31
27.5
  0
LINE
  8
0
 10
68.71601867675781
 20
22.53973388671875
 30
27.5
 11
69.03742218017578
 21
22.395151138305664
 31
27.5
  0
LINE
  8
0
 10
70.06541442871094
 20
22.49919319152832
 30
27.5
 11
70.35132598876953
 21
22.70524024963379
 31
27.5
  0
LINE
  8
0
 10
99.95933532714844
 20
33.77568054199219
 30
27.5
 11
99.9238510131836
 21
34.12630844116211
 31
27.5
  0
LINE
  8
0
 10
99.31975555419922
 20
34.96455764770508
 30
27.5
 11
98.99835205078125
 21
35.10913848876953
 31
27.5
  0
LINE
  8
0
 10
97.9703598022461
 20
35.00510025024414
 30
27.5
 11
97.6844482421875
 21
34.79905319213867
 31
27.5
  0
LINE
  8
0
 10
97.26055908203125
 20
33.85676193237305
 30
27.5
 11
97.2960433959961
 21
33.506134033203125
 31
27.5
  0
LINE
  8
0
 10
97.90013885498047
 20
32.667884826660156
 30
27.5
 11
98.22154235839844
 21
32.5233039855957
 31
27.5
  0
LINE
  8
0
 10
99.2495346069336
 20
32.627342224121094
 30
27.5
 11
99.53544616699219
 21
32.83338928222656
 31
27.5
  0
LINE
  8
0
 10
128.31825256347656
 20
21.918697357177734
 30
27.5
 11
128.2827606201172
 21
22.269325256347656
 31
27.5
  0
LINE
  8
0
 10
127.67866516113281
 20
23.107574462890625
 30
27.5
 11
127.35726928710938
 21
23.25215721130371
 31
27.5
  0
LINE
  8
0
 10
126.32926940917969
 20
23.148115158081055
 30
27.5
 11
126.04336547851562
 21
22.942068099975586
 31
27.5
  0
LINE
  8
0
 10
125.61946868896484
 20
21.999778747558594
 30
27.5
 11
125.65495300292969
 21
21.64914894104004
 31
27.5
  0
LINE
  8
0
 10
126.2590560913086
 20
20.810901641845703
 30
27.5
 11
126.58045196533203
 21
20.666318893432617
 31
27.5
  0
LINE
  8
0
 10
127.60844421386719
 20
20.770360946655273
 30
27.5
 11
127.89435577392578
 21
20.976408004760742
 31
27.5
  0
LINE
  8
0
 10
99.94869995117188
 20
59.98800277709961
 30
27.5
 11
99.92635345458984
 21
60.208770751953125
 31
27.5
  0
LINE
  8
0
 10
99.5459976196289
 20
60.73655700683594
 30
27.5
 11
99.34363555908203
 21
60.82758712768555
 31
27.5
  0
LINE
  8
0
 10
94.9166488647461
 20
174.8478546142578
 30
27.5
 11
89.85149383544922
 21
174.39198303222656
 31
27.5
  0
LINE
  8
0
 10
74.94580841064453
 20
171.22369384765625
 30
27.5
 11
70.13314056396484
 21
169.57997131347656
 31
27.5
  0
LINE
  8
0
 10
56.403560638427734
 20
162.96815490722656
 30
27.5
 11
52.117794036865234
 21
160.2303009033203
 31
27.5
  0
LINE
  8
0
 10
40.3471794128418
 20
150.55197143554688
 30
27.5
 11
36.83269119262695
 21
146.8760986328125
 31
27.5
  0
LINE
  8
0
 10
27.69219398498535
 20
134.68312072753906
 30
27.5
 11
25.14937973022461
 21
130.27883911132812
 31
27.5
  0
LINE
  8
0
 10
19.16019630432129
 20
116.26644134521484
 30
27.5
 11
17.734046936035156
 21
111.38487243652344
 31
27.5
  0
LINE
  8
0
 10
15.237677574157715
 20
96.35205841064453
 30
27.5
 11
15.00951099395752
 21
91.27155303955078
 31
27.5
  0
LINE
  8
0
 10
16.148300170898438
 20
76.07547760009766
 30
27.5
 11
17.131128311157227
 21
71.08572387695312
 31
27.5
  0
LINE
  8
0
 10
21.840139389038086
 20
56.592872619628906
 30
27.5
 11
23.977920532226562
 21
51.9783821105957
 31
27.5
  0
LINE
  8
0
 10
31.988649368286133
 20
39.015140533447266
 30
27.5
 11
35.15948486328125
 21
35.03903579711914
 31
27.5
  0
LINE
  8
0
 10
46.015159606933594
 20
24.344558715820312
 30
27.5
 11
50.03825378417969
 21
21.23355484008789
 31
27.5
  0
LINE
  8
0
 10
63.11988067626953
 20
13.417646408081055
 30
27.5
 11
67.76583862304688
 21
11.34913444519043
 31
27.5
  0
LINE
  8
0
 10
82.32750701904297
 20
6.8574538230896
 30
27.5
 11
87.33140563964844
 21
5.949379920959473
 31
27.5
  0
LINE
  8
0
 10
102.54281616210938
 20
5.038043022155762
 30
27.5
 11
107.61933898925781
 21
5.342185020446777
 31
27.5
  0
LINE
  8
0
 10
122.61312866210938
 20
8.063157081604004
 30
27.5
 11
127.47282409667969
 21
9.562171936035156
 31
27.5
  0
LINE
  8
0
 10
141.39404296875
 20
15.760302543640137
 30
27.5
 11
145.75979614257812
 21
18.36871910095215
 31
27.5
  0
LINE
  8
0
 10
157.81468200683594
 20
27.69059181213379
 30
27.5
 11
161.43756103515625
 21
31.259674072265625
 31
27.5
  0
LINE
  8
0
 10
170.938720703125
 20
43.17375564575195
 30
27.5
 11
173.61215209960938
 21
47.5
 31
27.5
  0
LINE
  8
0
 10
180.01785278320312
 20
61.32695007324219
 30
27.5
 11
181.5894012451172
 21
66.1636734008789
 31
27.5
  0
LINE
  8
0
 10
184.53436279296875
 20
81.11508178710938
 30
27.5
 11
184.91441345214844
 21
86.18649291992188
 31
27.5
  0
LINE
  8
0
 10
184.23072814941406
 20
101.40982818603516
 30
27.5
 11
183.39761352539062
 21
106.42675018310547
 31
27.5
  0
LINE
  8
0
 10
179.124267578125
 20
121.05398559570312
 30
27.5
 11
177.12548828125
 21
125.73036193847656
 31
27.5
  0
LINE
  8
0
 10
169.5061492919922
 20
138.9274444580078
 30
27.5
 11
166.45567321777344
 21
142.9966278076172
 31
27.5
  0
LINE
  8
0
 10
155.92478942871094
 20
154.01107788085938
 30
27.5
 11
151.99656677246094
 21
157.2410430908203
 31
27.5
  0
LINE
  8
0
 10
139.15460205078125
 20
165.44479370117188
 30
27.5
 11
134.57261657714844
 21
167.6513671875
 31
27.5
  0
LINE
  8
0
 10
120.1518325805664
 20
172.57666015625
 30
27.5
 11
115.17733764648438
 21
173.63401794433594
 31
27.5
  0
LINE
  8
0
 10
98.516357421875
 20
60.632347106933594
 30
27.5
 11
98.37605285644531
 21
60.46044158935547
 31
27.5
  0
LINE
  8
0
 10
98.27180480957031
 20
59.81828689575195
 30
27.5
 11
98.35052490234375
 21
59.6108283996582
 31
27.5
  0
LINE
  8
0
 10
98.85453033447266
 20
59.19947052001953
 30
27.5
 11
99.07355499267578
 21
59.16391372680664
 31
27.5
  0
LINE
  8
0
 10
99.68180084228516
 20
59.394710540771484
 30
27.5
 11
99.82210540771484
 21
59.56661605834961
 31
27.5
  0
LINE
  8
0
 10
130.81375122070312
 20
89.29431915283203
 30
27.5
 11
130.7350311279297
 21
89.50178527832031
 31
27.5
  0
LINE
  8
0
 10
130.23101806640625
 20
89.91313934326172
 30
27.5
 11
130.01199340820312
 21
89.94869995117188
 31
27.5
  0
LINE
  8
0
 10
129.40374755859375
 20
89.71790313720703
 30
27.5
 11
129.26344299316406
 21
89.5459976196289
 31
27.5
  0
LINE
  8
0
 10
129.15919494628906
 20
88.90383911132812
 30
27.5
 11
129.2379150390625
 21
88.69638061523438
 31
27.5
  0
LINE
  8
0
 10
129.74191284179688
 20
88.28501892089844
 30
27.5
 11
129.96095275878906
 21
88.24946594238281
 31
27.5
  0
LINE
  8
0
 10
130.56919860839844
 20
88.48026275634766
 30
27.5
 11
130.70950317382812
 21
88.65216827392578
 31
27.5
  0
LINE
  8
0
 10
70.84080505371094
 20
91.09616088867188
 30
27.5
 11
70.7620849609375
 21
91.30361938476562
 31
27.5
  0
LINE
  8
0
 10
70.2580795288086
 20
91.71498107910156
 30
27.5
 11
70.03905487060547
 21
91.75053405761719
 31
27.5
  0
LINE
  8
0
 10
69.4308090209961
 20
91.51973724365234
 30
27.5
 11
69.2905044555664
 21
91.34783172607422
 31
27.5
  0
LINE
  8
0
 10
69.1862564086914
 20
90.70568084716797
 30
27.5
 11
69.26497650146484
 21
90.49821472167969
 31
27.5
  0
LINE
  8
0
 10
69.76897430419922
 20
90.08686065673828
 30
27.5
 11
69.98799896240234
 21
90.05130004882812
 31
27.5
  0
LINE
  8
0
 10
70.59625244140625
 20
90.28209686279297
 30
27.5
 11
70.73655700683594
 21
90.4540023803711
 31
27.5
  0
LINE
  8
0
 10
101.72819519042969
 20
120.18170928955078
 30
27.5
 11
101.64947509765625
 21
120.38917541503906
 31
27.5
  0
LINE
  8
0
 10
101.14546966552734
 20
120.80052947998047
 30
27.5
 11
100.92644500732422
 21
120.83609008789062
 31
27.5
  0
LINE
  8
0
 10
100.31819915771484
 20
120.60529327392578
 30
27.5
 11
100.17789459228516
 21
120.43338775634766
 31
27.5
  0
LINE
  8
0
 10
100.07364654541016
 20
119.79122924804688
 30
27.5
 11
100.1523666381836
 21
119.58377075195312
 31
27.5
  0
LINE
  8
0
 10
100.65636444091797
 20
119.17240905761719
 30
27.5
 11
100.8753890991211
 21
119.13685607910156
 31
27.5
  0
LINE
  8
0
 10
101.483642578125
 20
119.3676528930664
 30
27.5
 11
101.62394714355469
 21
119.53955841064453
 31
27.5
  0
LINE
  8
0
 10
81.41133117675781
 20
160.65762329101562
 30
27.5
 11
81.33106231689453
 21
160.86448669433594
 31
27.5
  0
LINE
  8
0
 10
80.82401275634766
 20
161.27207946777344
 30
27.5
 11
80.60472106933594
 21
161.30599975585938
 31
27.5
  0
LINE
  8
0
 10
79.99821472167969
 20
161.0706787109375
 30
27.5
 11
79.85919189453125
 21
160.89772033691406
 31
27.5
  0
LINE
  8
0
 10
79.7597427368164
 20
160.2548065185547
 30
27.5
 11
79.84000396728516
 21
160.04794311523438
 31
27.5
  0
LINE
  8
0
 10
80.34706115722656
 20
159.64035034179688
 30
27.5
 11
80.56634521484375
 21
159.60643005371094
 31
27.5
  0
LINE
  8
0
 10
81.1728515625
 20
159.84176635742188
 30
27.5
 11
81.31187438964844
 21
160.01470947265625
 31
27.5
  0
LINE
  8
0
 10
123.40062713623047
 20
159.7095184326172
 30
27.5
 11
123.32035827636719
 21
159.9163818359375
 31
27.5
  0
LINE
  8
0
 10
122.81330871582031
 20
160.323974609375
 30
27.5
 11
122.5940170288086
 21
160.35789489746094
 31
27.5
  0
LINE
  8
0
 10
121.98751068115234
 20
160.12255859375
 30
27.5
 11
121.84849548339844
 21
159.94961547851562
 31
27.5
  0
LINE
  8
0
 10
121.74903869628906
 20
159.30670166015625
 30
27.5
 11
121.82930755615234
 21
159.09983825683594
 31
27.5
  0
LINE
  8
0
 10
53.64881134033203
 20
90.9642562866211
 30
27.5
 11
53.56389617919922
 21
91.16925811767578
 31
27.5
  0
LINE
  8
0
 10
53.047767639160156
 20
91.56529998779297
 30
27.5
 11
52.82777404785156
 21
91.5942611694336
 31
27.5
  0
LINE
  8
0
 10
52.22673034667969
 20
91.34529876708984
 30
27.5
 11
52.091651916503906
 21
91.16925811767578
 31
27.5
  0
LINE
  8
0
 10
52.006736755371094
 20
90.52426147460938
 30
27.5
 11
52.091651916503906
 21
90.31925964355469
 31
27.5
  0
LINE
  8
0
 10
52.6077766418457
 20
89.92322540283203
 30
27.5
 11
52.82777404785156
 21
89.89425659179688
 31
27.5
  0
LINE
  8
0
 10
53.42881393432617
 20
90.14321899414062
 30
27.5
 11
53.56389617919922
 21
90.31925964355469
 31
27.5
  0
LINE
  8
0
 10
147.91513061523438
 20
88.27195739746094
 30
27.5
 11
147.83021545410156
 21
88.47695922851562
 31
27.5
  0
LINE
  8
0
 10
147.3140869140625
 20
88.87300109863281
 30
27.5
 11
147.09408569335938
 21
88.90196228027344
 31
27.5
  0
LINE
  8
0
 10
146.4930419921875
 20
88.65299987792969
 30
27.5
 11
146.35797119140625
 21
88.47695922851562
 31
27.5
  0
LINE
  8
0
 10
146.27305603027344
 20
87.83196258544922
 30
27.5
 11
146.35797119140625
 21
87.62696075439453
 31
27.5
  0
LINE
  8
0
 10
146.87408447265625
 20
87.23092651367188
 30
27.5
 11
147.09408569335938
 21
87.20195770263672
 31
27.5
  0
LINE
  8
0
 10
147.69512939453125
 20
87.45092010498047
 30
27.5
 11
147.83021545410156
 21
87.62696075439453
 31
27.5
  0
LINE
  8
0
 10
70.73973083496094
 20
23.998159408569336
 30
27.5
 11
70.61470794677734
 21
24.327655792236328
 31
27.5
  0
LINE
  8
0
 10
69.8142318725586
 20
24.980989456176758
 30
27.5
 11
69.46636962890625
 21
25.03746223449707
 31
27.5
  0
LINE
  8
0
 10
68.50032806396484
 20
24.670900344848633
 30
27.5
 11
68.2774887084961
 21
24.397876739501953
 31
27.5
  0
LINE
  8
0
 10
68.11192321777344
 20
23.37798309326172
 30
27.5
 11
68.23694610595703
 21
23.048484802246094
 31
27.5
  0
LINE
  8
0
 10
69.03742218017578
 20
22.395151138305664
 30
27.5
 11
69.38528442382812
 21
22.338680267333984
 31
27.5
  0
LINE
  8
0
 10
70.35132598876953
 20
22.70524024963379
 30
27.5
 11
70.57416534423828
 21
22.9782657623291
 31
27.5
  0
LINE
  8
0
 10
99.9238510131836
 20
34.12630844116211
 30
27.5
 11
99.798828125
 21
34.455806732177734
 31
27.5
  0
LINE
  8
0
 10
98.99835205078125
 20
35.10913848876953
 30
27.5
 11
98.6504898071289
 21
35.165611267089844
 31
27.5
  0
LINE
  8
0
 10
97.6844482421875
 20
34.79905319213867
 30
27.5
 11
97.46160888671875
 21
34.52602767944336
 31
27.5
  0
LINE
  8
0
 10
97.2960433959961
 20
33.506134033203125
 30
27.5
 11
97.42106628417969
 21
33.1766357421875
 31
27.5
  0
LINE
  8
0
 10
98.22154235839844
 20
32.5233039855957
 30
27.5
 11
98.56940460205078
 21
32.46683120727539
 31
27.5
  0
LINE
  8
0
 10
99.53544616699219
 20
32.83338928222656
 30
27.5
 11
99.75828552246094
 21
33.106414794921875
 31
27.5
  0
LINE
  8
0
 10
128.2827606201172
 20
22.269325256347656
 30
27.5
 11
128.15773010253906
 21
22.59882354736328
 31
27.5
  0
LINE
  8
0
 10
127.35726928710938
 20
23.25215721130371
 30
27.5
 11
127.0093994140625
 21
23.30862808227539
 31
27.5
  0
LINE
  8
0
 10
126.04336547851562
 20
22.942068099975586
 30
27.5
 11
125.82052612304688
 21
22.669042587280273
 31
27.5
  0
LINE
  8
0
 10
125.65495300292969
 20
21.64914894104004
 30
27.5
 11
125.77998352050781
 21
21.319652557373047
 31
27.5
  0
LINE
  8
0
 10
126.58045196533203
 20
20.666318893432617
 30
27.5
 11
126.92831420898438
 21
20.609846115112305
 31
27.5
  0
LINE
  8
0
 10
127.89435577392578
 20
20.976408004760742
 30
27.5
 11
128.1171875
 21
21.249431610107422
 31
27.5
  0
LINE
  8
0
 10
99.92635345458984
 20
60.208770751953125
 30
27.5
 11
99.8476333618164
 21
60.416229248046875
 31
27.5
  0
LINE
  8
0
 10
99.34363555908203
 20
60.82758712768555
 30
27.5
 11
99.1246109008789
 21
60.86314392089844
 31
27.5
  0
LINE
  8
0
 10
122.33635711669922
 20
158.69224548339844
 30
27.5
 11
122.5556411743164
 21
158.6583251953125
 31
27.5
  0
LINE
  8
0
 10
123.16215515136719
 20
158.89364624023438
 30
27.5
 11
123.3011703491211
 21
159.0666046142578
 31
27.5
  0
LINE
  8
0
 10
89.85149383544922
 20
174.39198303222656
 30
27.5
 11
84.82266235351562
 21
173.63401794433594
 31
27.5
  0
LINE
  8
0
 10
70.13314056396484
 20
169.57997131347656
 30
27.5
 11
65.42738342285156
 21
167.6513671875
 31
27.5
  0
LINE
  8
0
 10
52.117794036865234
 20
160.2303009033203
 30
27.5
 11
48.00343322753906
 21
157.2410430908203
 31
27.5
  0
LINE
  8
0
 10
36.83269119262695
 20
146.8760986328125
 30
27.5
 11
33.5443229675293
 21
142.9966278076172
 31
27.5
  0
LINE
  8
0
 10
25.14937973022461
 20
130.27883911132812
 30
27.5
 11
22.87451171875
 21
125.73036193847656
 31
27.5
  0
LINE
  8
0
 10
17.734046936035156
 20
111.38487243652344
 30
27.5
 11
16.602386474609375
 21
106.42675018310547
 31
27.5
  0
LINE
  8
0
 10
15.00951099395752
 20
91.27155303955078
 30
27.5
 11
15.085589408874512
 21
86.18649291992188
 31
27.5
  0
LINE
  8
0
 10
17.131128311157227
 20
71.08572387695312
 30
27.5
 11
18.41060447692871
 21
66.1636734008789
 31
27.5
  0
LINE
  8
0
 10
23.977920532226562
 20
51.9783821105957
 30
27.5
 11
26.387840270996094
 21
47.5
 31
27.5
  0
LINE
  8
0
 10
35.15948486328125
 20
35.03903579711914
 30
27.5
 11
38.562435150146484
 21
31.259674072265625
 31
27.5
  0
LINE
  8
0
 10
50.03825378417969
 20
21.23355484008789
 30
27.5
 11
54.240196228027344
 21
18.36871910095215
 31
27.5
  0
LINE
  8
0
 10
67.76583862304688
 20
11.34913444519043
 30
27.5
 11
72.52717590332031
 21
9.562171936035156
 31
27.5
  0
LINE
  8
0
 10
87.33140563964844
 20
5.949379920959473
 30
27.5
 11
92.38066101074219
 21
5.342185020446777
 31
27.5
  0
LINE
  8
0
 10
107.61933898925781
 20
5.342185020446777
 30
27.5
 11
112.66859436035156
 21
5.949379920959473
 31
27.5
  0
LINE
  8
0
 10
127.47282409667969
 20
9.562171936035156
 30
27.5
 11
132.23416137695312
 21
11.34913444519043
 31
27.5
  0
LINE
  8
0
 10
145.75979614257812
 20
18.36871910095215
 30
27.5
 11
149.9617462158203
 21
21.23355484008789
 31
27.5
  0
LINE
  8
0
 10
161.43756103515625
 20
31.259674072265625
 30
27.5
 11
164.84051513671875
 21
35.03903579711914
 31
27.5
  0
LINE
  8
0
 10
173.61215209960938
 20
47.5
 30
27.5
 11
176.02207946777344
 21
51.9783821105957
 31
27.5
  0
LINE
  8
0
 10
181.5894012451172
 20
66.1636734008789
 30
27.5
 11
182.86886596679688
 21
71.08572387695312
 31
27.5
  0
LINE
  8
0
 10
184.91441345214844
 20
86.18649291992188
 30
27.5
 11
184.99049377441406
 21
91.27155303955078
 31
27.5
  0
LINE
  8
0
 10
183.39761352539062
 20
106.42675018310547
 30
27.5
 11
182.26596069335938
 21
111.38487243652344
 31
27.5
  0
LINE
  8
0
 10
177.12548828125
 20
125.73036193847656
 30
27.5
 11
174.85061645507812
 21
130.27883911132812
 31
27.5
  0
LINE
  8
0
 10
166.45567321777344
 20
142.9966278076172
 30
27.5
 11
163.1673126220703
 21
146.8760986328125
 31
27.5
  0
LINE
  8
0
 10
151.99656677246094
 20
157.2410430908203
 30
27.5
 11
147.8822021484375
 21
160.2303009033203
 31
27.5
  0
LINE
  8
0
 10
134.57261657714844
 20
167.6513671875
 30
27.5
 11
129.8668670654297
 21
169.57997131347656
 31
27.5
  0
LINE
  8
0
 10
115.17733764648438
 20
173.63401794433594
 30
27.5
 11
110.14850616455078
 21
174.39198303222656
 31
27.5
  0
LINE
  8
0
 10
121.82930755615234
 20
159.09983825683594
 30
27.5
 11
121.96037292480469
 21
158.92079162597656
 31
27.5
  0
LINE
  8
0
 10
122.5556411743164
 20
158.6583251953125
 30
27.5
 11
122.77623748779297
 21
158.68231201171875
 31
27.5
  0
LINE
  8
0
 10
99.1246109008789
 20
60.86314392089844
 30
27.5
 11
98.90383911132812
 21
60.84080123901367
 31
27.5
  0
LINE
  8
0
 10
98.37605285644531
 20
60.46044158935547
 30
27.5
 11
98.28501892089844
 21
60.25808334350586
 31
27.5
  0
LINE
  8
0
 10
98.35052490234375
 20
59.6108283996582
 30
27.5
 11
98.48026275634766
 21
59.430809020996094
 31
27.5
  0
LINE
  8
0
 10
99.07355499267578
 20
59.16391372680664
 30
27.5
 11
99.29431915283203
 21
59.186256408691406
 31
27.5
  0
LINE
  8
0
 10
130.7350311279297
 20
89.50178527832031
 30
27.5
 11
130.60528564453125
 21
89.68180084228516
 31
27.5
  0
LINE
  8
0
 10
130.01199340820312
 20
89.94869995117188
 30
27.5
 11
129.79122924804688
 21
89.92635345458984
 31
27.5
  0
LINE
  8
0
 10
129.26344299316406
 20
89.5459976196289
 30
27.5
 11
129.1724090576172
 21
89.34363555908203
 31
27.5
  0
LINE
  8
0
 10
129.2379150390625
 20
88.69638061523438
 30
27.5
 11
129.36764526367188
 21
88.516357421875
 31
27.5
  0
LINE
  8
0
 10
129.96095275878906
 20
88.24946594238281
 30
27.5
 11
130.1817169189453
 21
88.27180480957031
 31
27.5
  0
LINE
  8
0
 10
70.7620849609375
 20
91.30361938476562
 30
27.5
 11
70.6323471069336
 21
91.483642578125
 31
27.5
  0
LINE
  8
0
 10
70.03905487060547
 20
91.75053405761719
 30
27.5
 11
69.81829071044922
 21
91.72819519042969
 31
27.5
  0
LINE
  8
0
 10
69.2905044555664
 20
91.34783172607422
 30
27.5
 11
69.19947052001953
 21
91.14546966552734
 31
27.5
  0
LINE
  8
0
 10
69.26497650146484
 20
90.49821472167969
 30
27.5
 11
69.39470672607422
 21
90.31819915771484
 31
27.5
  0
LINE
  8
0
 10
69.98799896240234
 20
90.05130004882812
 30
27.5
 11
70.20877075195312
 21
90.07364654541016
 31
27.5
  0
LINE
  8
0
 10
101.64947509765625
 20
120.38917541503906
 30
27.5
 11
101.51973724365234
 21
120.5691909790039
 31
27.5
  0
LINE
  8
0
 10
100.92644500732422
 20
120.83609008789062
 30
27.5
 11
100.70568084716797
 21
120.8137435913086
 31
27.5
  0
LINE
  8
0
 10
100.17789459228516
 20
120.43338775634766
 30
27.5
 11
100.08686065673828
 21
120.23102569580078
 31
27.5
  0
LINE
  8
0
 10
100.1523666381836
 20
119.58377075195312
 30
27.5
 11
100.28209686279297
 21
119.40374755859375
 31
27.5
  0
LINE
  8
0
 10
100.8753890991211
 20
119.13685607910156
 30
27.5
 11
101.09616088867188
 21
119.15919494628906
 31
27.5
  0
LINE
  8
0
 10
81.33106231689453
 20
160.86448669433594
 30
27.5
 11
81.19998931884766
 21
161.0435333251953
 31
27.5
  0
LINE
  8
0
 10
80.60472106933594
 20
161.30599975585938
 30
27.5
 11
80.3841323852539
 21
161.28201293945312
 31
27.5
  0
LINE
  8
0
 10
79.85919189453125
 20
160.89772033691406
 30
27.5
 11
79.7696762084961
 21
160.69468688964844
 31
27.5
  0
LINE
  8
0
 10
79.84000396728516
 20
160.04794311523438
 30
27.5
 11
79.97107696533203
 21
159.868896484375
 31
27.5
  0
LINE
  8
0
 10
80.56634521484375
 20
159.60643005371094
 30
27.5
 11
80.78694152832031
 21
159.6304168701172
 31
27.5
  0
LINE
  8
0
 10
123.32035827636719
 20
159.9163818359375
 30
27.5
 11
123.18928527832031
 21
160.09542846679688
 31
27.5
  0
LINE
  8
0
 10
122.5940170288086
 20
160.35789489746094
 30
27.5
 11
122.37342834472656
 21
160.3339080810547
 31
27.5
  0
LINE
  8
0
 10
121.84849548339844
 20
159.94961547851562
 30
27.5
 11
121.75897216796875
 21
159.74658203125
 31
27.5
  0
LINE
  8
0
 10
53.56389617919922
 20
91.16925811767578
 30
27.5
 11
53.42881393432617
 21
91.34529876708984
 31
27.5
  0
LINE
  8
0
 10
52.82777404785156
 20
91.5942611694336
 30
27.5
 11
52.6077766418457
 21
91.56529998779297
 31
27.5
  0
LINE
  8
0
 10
52.091651916503906
 20
91.16925811767578
 30
27.5
 11
52.006736755371094
 21
90.9642562866211
 31
27.5
  0
LINE
  8
0
 10
52.091651916503906
 20
90.31925964355469
 30
27.5
 11
52.22673034667969
 21
90.14321899414062
 31
27.5
  0
LINE
  8
0
 10
52.82777404785156
 20
89.89425659179688
 30
27.5
 11
53.047767639160156
 21
89.92322540283203
 31
27.5
  0
LINE
  8
0
 10
147.83021545410156
 20
88.47695922851562
 30
27.5
 11
147.69512939453125
 21
88.65299987792969
 31
27.5
  0
LINE
  8
0
 10
147.09408569335938
 20
88.90196228027344
 30
27.5
 11
146.87408447265625
 21
88.87300109863281
 31
27.5
  0
LINE
  8
0
 10
146.35797119140625
 20
88.47695922851562
 30
27.5
 11
146.27305603027344
 21
88.27195739746094
 31
27.5
  0
LINE
  8
0
 10
146.35797119140625
 20
87.62696075439453
 30
27.5
 11
146.4930419921875
 21
87.45092010498047
 31
27.5
  0
LINE
  8
0
 10
147.09408569335938
 20
87.20195770263672
 30
27.5
 11
147.3140869140625
 21
87.23092651367188
 31
27.5
  0
LINE
  8
0
 10
70.61470794677734
 20
24.327655792236328
 30
27.5
 11
70.40866088867188
 21
24.613567352294922
 31
27.5
  0
LINE
  8
0
 10
69.46636962890625
 20
25.03746223449707
 30
27.5
 11
69.11573791503906
 21
25.001976013183594
 31
27.5
  0
LINE
  8
0
 10
68.2774887084961
 20
24.397876739501953
 30
27.5
 11
68.1329116821289
 21
24.076478958129883
 31
27.5
  0
LINE
  8
0
 10
68.23694610595703
 20
23.048484802246094
 30
27.5
 11
68.4429931640625
 21
22.7625732421875
 31
27.5
  0
LINE
  8
0
 10
69.38528442382812
 20
22.338680267333984
 30
27.5
 11
69.73591613769531
 21
22.37416648864746
 31
27.5
  0
LINE
  8
0
 10
99.798828125
 20
34.455806732177734
 30
27.5
 11
99.59278106689453
 21
34.74171829223633
 31
27.5
  0
LINE
  8
0
 10
98.6504898071289
 20
35.165611267089844
 30
27.5
 11
98.29985809326172
 21
35.130126953125
 31
27.5
  0
LINE
  8
0
 10
97.46160888671875
 20
34.52602767944336
 30
27.5
 11
97.31703186035156
 21
34.204627990722656
 31
27.5
  0
LINE
  8
0
 10
97.42106628417969
 20
33.1766357421875
 30
27.5
 11
97.62711334228516
 21
32.890724182128906
 31
27.5
  0
LINE
  8
0
 10
98.56940460205078
 20
32.46683120727539
 30
27.5
 11
98.92003631591797
 21
32.502315521240234
 31
27.5
  0
LINE
  8
0
 10
128.15773010253906
 20
22.59882354736328
 30
27.5
 11
127.95169067382812
 21
22.884735107421875
 31
27.5
  0
LINE
  8
0
 10
127.0093994140625
 20
23.30862808227539
 30
27.5
 11
126.65876770019531
 21
23.273141860961914
 31
27.5
  0
LINE
  8
0
 10
125.82052612304688
 20
22.669042587280273
 30
27.5
 11
125.67594146728516
 21
22.347646713256836
 31
27.5
  0
LINE
  8
0
 10
125.77998352050781
 20
21.319652557373047
 30
27.5
 11
125.98603057861328
 21
21.033740997314453
 31
27.5
  0
LINE
  8
0
 10
126.92831420898438
 20
20.609846115112305
 30
27.5
 11
127.27894592285156
 21
20.64533233642578
 31
27.5
  0
LINE
  8
0
 10
99.8476333618164
 20
60.416229248046875
 30
27.5
 11
99.71790313720703
 21
60.596248626708984
 31
27.5
  0
ENDSEC
  0
EOF
